<?xml version="1.0" encoding="utf-8" ?><svg xmlns="http://www.w3.org/2000/svg" xmlns:xlink="http://www.w3.org/1999/xlink" width="2000" height="2000" viewBox="0 0 2000 2000"><path fill="white" d="M0 0L2000 0L2000 2000L0 2000L0 0Z"/><path fill="#747373" d="M523.935 803.833C533.871 803.469 545.086 807.438 548.057 817.843C553.024 833.218 549.346 851.592 552.059 867.152C555.155 884.906 553.867 904.553 556.729 921.761C561.861 952.614 570.26 981.074 569.42 1012.78C569.142 1023.3 574.531 1039.33 576.605 1049.97C582.96 1077.53 593.421 1103.55 625.444 1106.95C650.518 1111.02 673.928 1111.43 699.293 1111.29C706.502 1111.25 719.662 1123.97 728.078 1123.83C741.447 1124.81 754.802 1120.16 768.061 1119.69C817.091 1117.94 866.687 1116.39 915.654 1119.53C924.827 1120.12 936.446 1125.68 945.596 1125.51C956.621 1125.31 967.824 1123.38 978.91 1123.61C1011.62 1123.35 1044.87 1125.2 1077.53 1123.87C1091.06 1123.33 1103.6 1119.35 1118.45 1118.85C1183.99 1116.65 1249.42 1118.82 1314.95 1118.48C1326.17 1118.43 1337.89 1122.32 1349.15 1122.9C1363.94 1124.16 1374.16 1113.49 1388.96 1116.5C1394.93 1117.71 1400.6 1119.66 1406.43 1121.4L1407.5 1121.08C1427.39 1115.01 1449.35 1080.87 1452.08 1061.39C1458.87 1012.81 1458.26 956.717 1454.95 907.445C1452.93 877.334 1438.72 843.916 1448.67 814.762C1450.93 808.162 1462.24 804.686 1468.28 803.201C1496.7 810.872 1489.12 829.589 1493.12 852.669C1494.32 859.65 1496.03 866.681 1497.76 873.56C1499.39 884.402 1503 898.376 1503.92 908.738C1507.56 949.537 1510.22 994.592 1505.87 1035.24C1505.26 1040.98 1506.32 1048.09 1506.04 1053.51C1505.81 1058 1502.33 1069.61 1500.65 1074.19C1489.9 1103.61 1461.57 1146.17 1434.29 1161.09C1421.05 1168.33 1403.23 1167.49 1389.31 1168.37C1377.05 1169.14 1365.41 1172.08 1352.76 1172.34C1319.52 1173.02 1286.27 1171.07 1253.04 1170.66C1244.46 1170.55 1233.18 1173.85 1223.98 1174.02C1195.86 1174.54 1167.75 1174.08 1139.65 1173.53C1126.62 1173.27 1115.56 1169.91 1103.13 1169.22C1095.76 1168.81 1081.91 1174.47 1073.9 1175.93C1063.57 1177.81 1053.64 1177.85 1043.15 1178.13C1011.35 1178.96 979.535 1178.43 947.781 1176.55C930.179 1175.39 911.299 1172.37 893.76 1172.25C851.686 1171.96 809.458 1173.78 767.364 1173.13C756.686 1173.56 745.069 1169.32 734.855 1168.74C719.236 1167.85 704.596 1167.25 689.062 1164.77C680.215 1163.35 669.354 1164.72 660.197 1163.57C633.848 1160.28 608 1154.04 582.916 1145.35C561.607 1138.31 555.337 1127.4 545.913 1107.97C537.823 1091.29 530.883 1073.9 526.284 1055.88C523.377 1043.4 517.876 1028.27 519.02 1015.47C519.352 1011.76 525.887 1000.84 527.652 995.532C524.845 984.352 518.997 978.351 515.919 969.304C508.046 945.062 508.65 919.337 507.608 894.306C506.862 876.413 502.344 859.938 503.772 841.305C505.41 819.936 502.3 812.282 523.935 803.833Z"/><path fill="#747373" d="M869.101 1201.28C872.029 1201.05 880.661 1200.43 882.23 1202.62C903.328 1232.08 913.68 1271.99 928.641 1305.12C932.402 1314.93 939.702 1324.84 942.509 1334.71C944.335 1341.14 934.214 1346.71 928.553 1344.81C914.139 1339.95 912.762 1317.6 904.694 1305.03C896.305 1305.93 889.816 1306.52 881.41 1306.74C868.876 1306.45 856.347 1305.95 843.83 1305.23C840.055 1310.89 836.151 1319.85 833.319 1328.91C829.562 1343.14 820.741 1350.69 807.887 1340.17C804.182 1337.14 813.631 1314.96 815.417 1311.69C826.646 1291.1 852.103 1212.14 869.101 1201.28Z"/><path fill="white" d="M873.568 1229.02C879.915 1234.07 893.438 1275.5 898.301 1286.79C889.283 1287.7 883.187 1288.01 874.124 1288.05C865.159 1287.6 857.548 1287.24 848.607 1286.07C856.292 1265.74 865.167 1248.8 873.568 1229.02Z"/><path fill="#E49ABF" d="M1146.92 981.786C1150.67 972.261 1162.87 959.667 1158.85 950.95C1147.93 927.265 1095.82 926.365 1103.76 892.857C1110.36 877.778 1141.13 872.617 1154.25 868.831C1163.45 866.178 1190.04 857.594 1192.9 868.919C1198.55 891.309 1166.55 893.9 1153.04 897.286C1139.85 900.592 1136.66 898.821 1126.02 895.716C1157.1 915.713 1209.65 933.432 1179.5 978.432C1179.05 979.099 1178.6 979.761 1178.13 980.418C1190.04 991.883 1211.94 1011.16 1220.36 1024.83C1236.29 1050.69 1155.02 1079 1152.06 1049.89L1161.7 1042.04C1176.83 1039.38 1188.7 1037.62 1202.21 1030.02C1183.29 1022.63 1153.96 1001.13 1146.92 981.786Z"/><path fill="#CCDC81" d="M1359.4 870.069C1361.4 870.055 1367.08 870 1368.49 871.468C1390.09 893.93 1401.58 929.879 1410.87 958.55C1417.64 979.421 1427.38 1027.67 1397.75 1034C1354.16 1043.32 1299.66 1010.06 1263.59 990.156C1256.67 986.13 1239.39 975.71 1250.72 963.875C1252.47 962.044 1259.01 962.588 1261.45 963.913C1292.13 980.573 1320.82 1001.01 1355.89 1007.42C1372.37 1010.86 1393.67 1020.87 1392.06 993.617C1390.47 966.615 1380.15 939.626 1370.44 914.513C1366.02 903.076 1352.86 892.315 1352.55 879.248C1352.45 875.323 1356.77 872.233 1359.4 870.069Z"/><path fill="#747373" d="M1297.31 1202.4C1315.1 1201.34 1333.25 1206.06 1345.45 1220.18C1347.63 1222.7 1349 1227.17 1348.41 1230.5C1347.85 1233.55 1346.02 1236.21 1343.38 1237.83C1331.42 1245.35 1325.99 1226.98 1310.65 1224.11C1299.41 1222.01 1275.1 1225.48 1273.09 1239.76C1271.22 1253.05 1311.28 1260.67 1320.61 1265.29C1328.36 1269.13 1339.52 1273.86 1345.54 1281.28C1357.99 1294.37 1355.86 1316.97 1342.28 1328.64C1327.19 1341.6 1308.81 1345 1289.43 1343.7C1273.25 1340.38 1253.38 1331.89 1247.09 1314.97C1245.75 1311.34 1245.96 1305.3 1247.98 1301.86C1249.54 1299.23 1252.2 1297.45 1255.23 1297.02C1267.13 1295.34 1270.49 1313.27 1280.8 1319.43C1289.71 1325.81 1298.47 1323.3 1307.97 1322.54C1317.18 1321.79 1334.64 1313.46 1329.96 1301.81C1321.98 1281.97 1285.26 1281.61 1269.13 1269.62C1261.04 1263.62 1253.41 1258.14 1251.39 1247.15C1247.46 1214.61 1273.97 1206.77 1297.31 1202.4Z"/><path fill="#747373" d="M1111.07 1202.15C1115.42 1202.25 1121.1 1202.19 1124.53 1205.35C1126.61 1207.26 1127.25 1210.39 1127.61 1213.06C1128.6 1220.38 1127.74 1228.31 1127.52 1235.7C1127.15 1247.98 1127.2 1260.22 1128.87 1272.43C1130.91 1287.37 1135.54 1307.62 1148.53 1316.91C1154.28 1321.02 1162.51 1323.39 1169.55 1322.02C1174.5 1321.06 1179.66 1317.54 1183.39 1314.28C1214.74 1286.94 1187.75 1220.07 1198.08 1207.05C1201.08 1203.26 1208.6 1202.97 1212.95 1203.1C1215.83 1203.18 1217.95 1204.26 1219.81 1206.51C1224.22 1211.86 1221.66 1225.38 1221.18 1232.18C1219.7 1250.14 1224.45 1268.52 1221.99 1288.58C1215.84 1338.83 1154.98 1367.68 1121.53 1321.78C1105.34 1299.57 1103.62 1265.14 1103.21 1238.5C1103.01 1225.23 1097.82 1210.42 1111.07 1202.15Z"/><path fill="#747373" d="M1020.67 1201.54C1038.49 1199.76 1048.16 1201.23 1063.73 1213.15C1079 1224.85 1079.88 1247.65 1056.33 1237.9C1054.56 1237.17 1047.63 1226.69 1044.16 1225.12C1029.2 1218.35 1009.41 1222.8 996.28 1231.93C981.588 1242.86 977.922 1267.11 980.09 1284.23C984.769 1321.2 1030 1335.5 1057.45 1312.62C1061.54 1307.93 1070.94 1301.98 1075.01 1306.85C1091.95 1327.12 1055.36 1341.79 1042.04 1343.25C1016.94 1345.99 999.333 1343.75 979.089 1329.26C964.69 1318.96 959.057 1302.9 956.163 1286.49C953.488 1266.66 959.692 1238.48 972.445 1222.62C985.25 1206.69 1001.72 1203.82 1020.67 1201.54Z"/><path fill="#FEAD94" d="M1035.11 961.91C1082.13 960.798 1112.49 981.504 1101.89 1033.58C1094.75 1068.69 1060.55 1084.27 1027.53 1074.65C1008.04 1068.97 991.61 1053.48 981.413 1035.82C978.497 1029.35 970.382 1012.02 979.412 1007.11C994.569 999.046 998.38 1022.48 1004.84 1031.58C1015.42 1047.81 1030.19 1054.24 1049.11 1053.3C1068.52 1052.33 1073.21 1043.01 1078.69 1025.78C1084.5 1007.18 1079.61 993.764 1059.36 988.651C1049.27 986.105 1021.31 990.628 1025.75 971.889C1027.07 966.291 1030.34 964.459 1035.11 961.91Z"/><path fill="#E49ABF" d="M823.531 989.167C836.492 988.894 842.01 1000.03 844.282 1011.4C848.35 1031.19 853.177 1065.92 840.685 1083.41C816.832 1116.79 778.775 1082.59 751.731 1075.29C744.541 1073.35 742.625 1080 731.147 1074.9C723.117 1081.5 727.855 1090.65 712.311 1085.54C704.296 1076.55 714.594 1059.07 719.965 1050.36C727.157 1038.69 742.377 1038.81 742.018 1056.19L744.167 1055.79C747.1 1052.58 748.39 1051.63 751.875 1048.92C772.124 1051.06 790.145 1069.97 810.701 1073.85C832.527 1077.97 822.896 1028.72 821.114 1017.84C818.987 1004.84 806.422 999.961 823.531 989.167Z"/><path fill="#747373" d="M711.358 1202.22C732.953 1200.52 730.188 1215.79 731.731 1233.13C734.327 1262.28 733.671 1291.99 731.843 1321.17C741.242 1322.02 754.804 1322.17 764.169 1320.75C778.244 1318.62 817.997 1320.94 795.685 1343.7C787.411 1344.22 778.531 1342.24 767.268 1341.93C754.149 1341.57 720.518 1346.26 709.672 1336.67C706.033 1330.47 707.416 1312.44 708.185 1306.23C712.264 1273.29 705.432 1242.04 705.823 1209.46C705.86 1206.37 709.028 1203.86 711.358 1202.22Z"/><path fill="#92E3E0" d="M1100 844.94C1118.18 843.79 1152.28 844.582 1127.44 870.977C1110.56 876.056 1102.29 877.295 1084.78 877.945C1052.59 906.953 1068.82 916.201 1063.03 950.837C1061.46 960.222 1045.14 962.354 1041.13 948.257C1040.72 918.059 1037.03 903.728 1055.26 878.835C1044.01 878.951 1012.28 881.89 1006.01 871.443C1005.55 868.146 1006.28 865.156 1008.57 862.632C1013.55 857.165 1063.07 858.871 1073.95 858.665C1082.4 852.173 1089.82 847.931 1100 844.94Z"/><path fill="#B19392" d="M1344.56 801.979C1367.27 800.65 1380.04 804.33 1399.67 818.451C1419.82 832.952 1437.6 861.649 1443.39 886.063C1443.64 888.48 1442.23 892.568 1440.41 894.113C1429.61 903.169 1421.65 886.663 1418.4 878.681C1413.43 866.486 1407.57 856.439 1398.97 846.593C1387.99 835.187 1370.46 823.315 1354.16 823.51C1334.55 823.746 1337.79 843.012 1338.52 856.251C1342.95 860.516 1348.19 867.179 1344.68 872.993C1332.59 892.963 1317.04 872.032 1314.95 858.137C1312.69 843.11 1313.9 828.246 1321.76 815.543C1327.08 806.956 1335.73 803.718 1344.56 801.979Z"/><path fill="#92C8FE" d="M1122.47 1077.86C1140.81 1065.84 1168.11 1070.92 1170.62 1097.63C1171.18 1103.57 1164.23 1112.24 1157.17 1110.34C1147.34 1107.69 1151.12 1091.78 1139.66 1092.04C1132.71 1092.47 1138.37 1103.94 1132.7 1106.86C1126.79 1109.7 1119.26 1109.29 1113.01 1109.73C1075.75 1112.37 1072.41 1087.01 1095.84 1063.4C1110.13 1049 1126.62 1034.95 1144.98 1025.01C1157.89 1018.02 1169.18 1027.93 1161.7 1042.04L1152.06 1049.89C1138.61 1058.71 1130.11 1066.74 1117.81 1076.72C1114.29 1079.57 1105.06 1080.55 1102.76 1084.98C1105.66 1088.25 1113.42 1090.84 1117.77 1088.8C1120.81 1085.77 1121.27 1082.13 1122.47 1077.86Z"/><path fill="#92C8FE" d="M612.26 955.172C636.578 957.884 629.783 988.802 622.981 1004.42C619.612 1007.04 613.038 1010.67 609.157 1012.97C641.154 1019.44 624.13 1040.57 628.136 1060.14C629.853 1068.52 662.977 1062.76 668.831 1065.3C678.623 1069.55 677.157 1080.24 666.786 1083.71L665.636 1083.83C644.004 1086.16 613.727 1091.36 606.031 1063.6C603.765 1055.42 603.468 1046.33 602.841 1037.85C571.656 1023.03 589.71 1010.43 599.747 990.46C606.645 976.733 591.727 963.981 612.26 955.172Z"/><path fill="#A2B198" d="M954.036 870.138C960.95 869.842 967.98 871.859 969.527 879.486C971.302 888.239 961.193 897.433 959.41 905.042C954.121 927.59 954.44 953.532 941.42 973.495C932.535 987.118 918.633 987.619 906.756 977.428L906.282 978.393C901.144 988.825 896.565 1002.22 882.775 993.347C877.676 982.389 887.067 967.286 891.914 956.798C907.007 924.139 916.275 943.766 924.837 965.744C933.042 939.741 930.54 885.581 954.036 870.138Z"/><path fill="#FFD89D" d="M1260.81 1025.33C1263.06 1025.24 1268.85 1024.95 1270.28 1026.9C1280.33 1040.62 1338.22 1068.31 1323.08 1088.87C1315.61 1099.01 1277.64 1093.64 1262.96 1094.87C1257.66 1095.66 1238.22 1097.57 1234.63 1095.09C1203.36 1073.43 1272.28 1071.98 1281.87 1070.84C1269.28 1061.02 1237.84 1040.65 1260.81 1025.33Z"/><path fill="#E49ABF" d="M667.136 835.841C672.871 835.677 677.633 837.929 682.706 840.551C702.104 850.578 708.256 862.842 714.94 882.06C748.648 881.865 730.684 853.646 742.297 848.62C772.395 835.595 760.887 874.214 759.094 881.352C749.455 904.627 736.921 905.942 714.272 903.749C712.017 906.695 705.38 912.196 701.91 911.533C687.717 908.82 693.416 882.9 687.873 871.791C681.49 859 673.558 861.284 663.33 852.947C656.223 846.082 661.399 840.217 667.136 835.841Z"/><path fill="#FFD89D" d="M863.414 864.259C885.926 863.704 889.836 883.545 883.57 901.238C874.624 926.502 858.962 946.051 831.131 948.991C826.08 946.288 821.362 942.905 815.764 943.735C808.459 949.969 815.713 956.571 800.435 958.753C780.323 950.689 804.152 919.369 818.308 918.508C826.436 918.014 830.4 923.576 836.1 928.346C844.474 921.859 855.788 908.978 858.511 898.529C858.99 896.69 849.35 892.022 847.011 888.817C838.958 877.783 854.912 868.945 863.414 864.259Z"/><path fill="#B19392" d="M870.38 1018.47C912.895 1021.22 905.967 1059.43 922.667 1066.22C931.895 1063.4 943.968 1047.46 953.404 1052.31C963.576 1057.54 956.073 1074.36 952.885 1080.33C925.501 1113.24 897.785 1081.17 888.835 1052.71C883.158 1034.65 874.504 1043.8 864.802 1035.45C858.273 1029.83 866.017 1021.8 870.38 1018.47Z"/><path fill="#CCDC81" d="M977.68 977.739C985.298 977.192 995.61 976.92 1002.9 979.553C1011.1 982.337 1031.23 991.874 1033.68 1000.75C1039.2 1020.74 1022.62 1020.79 1010.61 1011.46C994.325 998.809 990.717 997.616 972.201 1003.36C958.41 1012.06 962 1024.24 956.179 1036.02C947.383 1053.83 933.235 1042.41 937.467 1025.05C943.341 1000.95 950.89 983.001 977.68 977.739Z"/><path fill="#CCDC81" d="M727.638 954.955C749.155 925.196 771.869 900.025 801.8 878.442C807.892 874.05 817.996 864.855 825.008 864.114C836.354 862.915 840.902 876.512 832.229 884.244C821.007 894.249 809.057 900.142 796.822 908.626C777.532 922.587 757.734 947.184 744.772 966.757L744.282 966.807C737.854 961.594 734.712 959.071 727.638 954.955Z"/><path fill="#92E3E0" d="M580.166 884.553C588.303 884.722 618.151 901.502 626.897 906.025C637.099 904.054 641.827 904.523 652.748 907.416C662.101 909.894 679.297 923.925 663.241 931.111C654.127 935.19 636.233 927.043 626.903 922.819C619.373 924.697 614.421 927.204 607.837 931.026C598.277 938.373 596.935 946.91 591.702 957.168C588.828 962.802 581.664 970.899 574.99 966.095C569.905 955.586 577.903 943.532 583.011 934.442C589.132 923.546 595.781 918.468 606.622 912.727C597.964 908.366 579.136 901.291 576.694 891.63C577.088 887.838 577.753 887.443 580.166 884.553Z"/><path fill="#FEAD94" d="M1371.98 1041.71C1389.24 1042.32 1390.87 1054.83 1399.34 1062.18C1410.5 1063.18 1419.56 1030.41 1434.4 1060.33C1430.63 1072 1424.44 1081.07 1414.67 1088.47C1412.65 1089.72 1408.19 1091.78 1405.93 1092.91C1393.1 1090.67 1391.19 1088.62 1382.65 1079.3C1382.17 1086.27 1381.69 1096.53 1373.79 1099.25C1353.92 1097.49 1361.77 1053.01 1371.98 1041.71Z"/><path fill="#CCDC81" d="M727.638 954.955C734.712 959.071 737.854 961.594 744.282 966.807L744.772 966.757C761.513 984.241 778.057 997.029 792.109 1017.87C793.743 1020.29 814.542 1022.74 800.059 1041.78C798.592 1043.71 794.992 1044.2 792.783 1043.77C769.601 1039.97 748.205 994.621 731.848 988.13L731.999 987.371C726.665 982.193 721.981 979.01 715.543 975.517C717.424 971.031 724.657 959.873 727.638 954.955Z"/><path fill="#CDD45E" d="M727.638 954.955C734.712 959.071 737.854 961.594 744.282 966.807C742.197 970.534 734.095 984.805 731.999 987.371C726.665 982.193 721.981 979.01 715.543 975.517C717.424 971.031 724.657 959.873 727.638 954.955Z"/><path fill="#CCDC81" d="M663.249 987.103C663.248 994.741 665.285 1013.67 650.285 1009.64C638.011 1006.33 642.534 984.33 646.203 975.337C655.343 952.935 684.3 949.907 705.318 949.521C713.545 949.369 720.194 951.73 727.638 954.955C724.657 959.873 717.424 971.031 715.543 975.517L714.971 975.577C697.394 969.553 675.403 971.765 663.249 987.103Z"/><path fill="#FEAD94" d="M593.82 828.167C603.712 829.07 614.967 842.585 623.077 848.994C634.597 859.021 647.551 867.814 658.304 878.686C667.407 887.889 664.317 894.647 655.419 901.343C639.681 901.686 621.643 878.899 609.3 868.602C599.613 860.522 570.019 837.118 593.82 828.167Z"/><path fill="#A2B198" d="M1271.22 903.884L1271.89 904.051C1278.38 910.286 1287.25 917.338 1292.95 923.044L1292.93 923.424C1267.7 928.622 1224.09 931.702 1198.28 928.257C1189.38 927.069 1190.4 911.631 1199.36 910.326C1223.11 906.865 1247.29 907.352 1271.22 903.884Z"/><path fill="#CCDC81" d="M1311.92 913.974L1312.25 913.951C1321.11 921.268 1329.07 927.234 1338.92 933.102C1348.38 939.158 1358.28 943.33 1366.86 950.793C1372.52 955.725 1369.98 967.904 1361.23 967.674C1354.03 967.485 1347.6 963.445 1341.56 959.393C1330.45 951.943 1319.33 943.779 1308.67 935.619C1304.16 932.17 1297.65 925.997 1292.93 923.424L1292.95 923.044C1299.75 922.496 1307.52 919.277 1311.92 913.974Z"/><path fill="#CCDC81" d="M1013.16 901.24C1035.82 904.457 1020.56 924.866 1012.43 934.782C1004.32 944.669 994.35 958.65 983.752 965.547C948.933 969.446 1007.36 904.908 1013.16 901.24Z"/><path fill="#CA6BE5" d="M1012.24 1091.22C1024.13 1090.65 1042.39 1090.27 1048.78 1103.68C1049.58 1105.36 1049.26 1108.48 1047.91 1109.86C1039.62 1118.33 1026.48 1110.67 1016.43 1110.23C1011.4 1109.99 1007.16 1110.23 1002.69 1110.42C997.795 1110.78 974.979 1115.38 973.171 1114.04C948.157 1095.61 1002.43 1092.25 1012.24 1091.22Z"/><path fill="#CCDC81" d="M715.543 975.517C721.981 979.01 726.665 982.193 731.999 987.371L731.848 988.13C724.732 1001.33 718.893 1015.38 714.06 1030.28C712.682 1041.86 695.89 1048.82 692.908 1035.88C689.98 1023.16 709.643 986.127 714.971 975.577L715.543 975.517Z"/><path fill="#CDD45E" d="M1271.22 903.884C1266.87 898.899 1258.76 887.384 1272.46 882.582C1277.94 880.662 1289.93 894.289 1295.74 898.649C1307.66 893.418 1317.42 901.961 1312.25 913.951L1311.92 913.974C1307.52 919.277 1299.75 922.496 1292.95 923.044C1287.25 917.338 1278.38 910.286 1271.89 904.051L1271.22 903.884Z"/><path fill="#CCDC81" d="M1271.22 903.884C1266.87 898.899 1258.76 887.384 1272.46 882.582C1277.94 880.662 1289.93 894.289 1295.74 898.649L1295.83 899.191C1285.4 902.391 1281.02 902.006 1271.89 904.051L1271.22 903.884Z"/><path fill="#A2B198" d="M1295.74 898.649C1307.66 893.418 1317.42 901.961 1312.25 913.951L1311.92 913.974C1306.62 908.972 1301.26 904.044 1295.83 899.191L1295.74 898.649Z"/></svg>